<svg id="_x34_04_1_" xmlns="http://www.w3.org/2000/svg" viewBox="0 0 118 168"><style type="text/css">  
	.st0{fill-rule:evenodd;clip-rule:evenodd;fill:#222222;}
</style><g id="_x34_04"><path class="st0" d="M66.4 33.2V2.7L50.9 33.2H66.4zM34 134.1h32.5v-32.5H34V134.1zM34 66.7h32.5V34.2h-16L34 66.7zM65.8 67.9H34v32.5h15.4L65.8 67.9zM32.7 100.4V69.9l-15.4 30.5H32.7zM0.3 134.1h32.5v-32.5H16.4L0.3 134.1zM67.7 100.4h32.5V67.9H67.7V100.4zM101.1 101.6v32.5h16.5v-32.5H101.1zM67.7 167.7h32.5v-32.5H67.7V167.7zM67.7 33.2h32.5V0.7H67.7V33.2zM67.7 66.7h32.5V34.2H67.7V66.7zM67.7 134.1h32.5v-32.5H67.7V134.1z"/></g></svg>