<svg xmlns="http://www.w3.org/2000/svg" viewBox="0 0 118 168"><style type="text/css">  
	.st0{fill-rule:evenodd;clip-rule:evenodd;fill:#222222;}
</style><path class="st0" d="M0.4 134.1h16.5v-32.5H0.4V134.1zM17.9 167.7h32.5v-32.5H17.9V167.7zM17.9 100.4h32.5V67.9H17.9V100.4zM17.9 134.1h32.5v-32.5H17.9V134.1zM85.3 69.9v30.5h15.4L85.3 69.9zM51.6 2.7v30.5h15.5L51.6 2.7zM51.6 34.2v32.5H84L67.6 34.2H51.6zM17.9 66.7h32.5V34.2H17.9V66.7zM68.7 100.4H84V67.9H52.2L68.7 100.4zM101.6 101.6H85.3v32.5h32.5L101.6 101.6zM17.9 33.2h32.5V0.7H17.9V33.2zM51.6 134.1H84v-32.5H51.6V134.1z"/></svg>