<svg xmlns="http://www.w3.org/2000/svg" viewBox="0 0 101 168"><style type="text/css">  
	.st0{fill-rule:evenodd;clip-rule:evenodd;fill:#E24545;}
</style><path class="st0" d="M0.8 66.7h32.5V34.2H0.8V66.7zM0.8 100.4h32.5V67.9H0.8V100.4zM0.8 151.5c0 4.5 1.5 8.3 4.6 11.5 3.1 3.2 6.9 4.7 11.4 4.7h16.5v-32.5H0.8V151.5zM0.8 134.1h32.5v-32.5H0.8V134.1zM34.5 167.7H67v-32.5H34.5V167.7zM5.6 5.6c-3.2 3.2-4.7 7-4.7 11.4v16.2h32.5V0.7H16.8C12.5 0.7 8.7 2.4 5.6 5.6zM34.5 33.2H67V0.7H34.5V33.2zM95.9 5.6C92.8 2.4 89 0.7 84.7 0.7H68.2v32.5h32.5V17C100.7 12.7 99.1 8.9 95.9 5.6zM68.2 100.4h32.5V67.9H68.2V100.4zM68.2 66.7h32.5V34.2H68.2V66.7zM68.2 167.7h16.5c4.5 0 8.3-1.6 11.4-4.7 3.1-3.2 4.6-7 4.6-11.5v-16.2H68.2V167.7zM68.2 134.1h32.5v-32.5H68.2V134.1z"/></svg>